<?xml version="1.0" standalone="no"?>
<!DOCTYPE svg PUBLIC "-//W3C//DTD SVG 20010904//EN"
 "http://www.w3.org/TR/2001/REC-SVG-20010904/DTD/svg10.dtd">
<svg version="1.0" xmlns="http://www.w3.org/2000/svg"
 width="1024.000000pt" height="1024.000000pt" viewBox="0 0 1024.000000 1024.000000"
 preserveAspectRatio="xMidYMid meet">
<metadata>
Created by potrace 1.14, written by Peter Selinger 2001-2017
</metadata>
<g transform="translate(0.000000,1024.000000) scale(0.100000,-0.100000)"
fill="#000000" stroke="none">
<path d="M5049 10192 c-37 -26 -212 -146 -389 -267 -177 -121 -327 -224 -334
-230 -7 -5 -20 -14 -29 -20 -88 -52 -938 -644 -942 -657 -3 -9 -8 -27 -10 -40
-3 -13 -7 -34 -10 -48 -3 -14 -7 -35 -10 -48 -2 -13 -7 -32 -10 -42 -3 -10 -8
-29 -10 -42 -32 -165 -35 -176 -46 -228 -6 -25 -12 -54 -15 -65 -2 -11 -17
-83 -33 -160 -16 -77 -32 -151 -35 -165 -18 -86 -51 -242 -65 -300 -5 -25 -12
-60 -16 -77 -3 -18 -12 -61 -20 -95 -8 -35 -17 -78 -20 -97 -3 -19 -7 -37 -9
-40 -2 -3 -7 -23 -10 -43 -3 -21 -17 -89 -31 -152 -13 -63 -27 -127 -29 -143
-3 -15 -14 -68 -25 -118 -22 -97 -108 -500 -115 -537 -2 -13 -23 -111 -46
-218 -43 -200 -79 -374 -85 -400 -6 -29 -55 -265 -61 -290 -19 -92 -103 -485
-108 -510 -24 -120 -89 -422 -96 -450 -5 -19 -11 -48 -14 -65 -16 -100 -61
-288 -70 -290 -204 -56 -327 -100 -471 -170 -503 -244 -890 -653 -1100 -1165
-82 -198 -142 -434 -162 -630 -14 -145 -7 -459 13 -564 2 -11 6 -38 9 -61 10
-66 54 -233 91 -345 68 -203 210 -466 359 -660 78 -103 305 -326 338 -332 48
-9 72 20 91 114 10 46 28 135 41 198 14 63 26 126 29 140 2 14 23 115 46 225
23 110 44 210 46 223 3 12 27 134 55 270 96 476 102 496 185 579 90 90 226
126 362 97 35 -7 75 -15 90 -17 15 -3 117 -24 227 -47 110 -23 211 -43 225
-45 14 -2 34 -6 45 -9 11 -3 155 -32 320 -66 206 -42 319 -70 360 -89 125 -58
208 -183 212 -323 1 -42 -3 -92 -8 -113 -6 -20 -16 -68 -24 -108 -7 -40 -16
-85 -20 -102 -3 -16 -24 -118 -46 -225 -22 -107 -51 -247 -64 -310 -13 -63
-26 -128 -29 -145 -8 -39 -15 -74 -21 -105 -3 -14 -10 -47 -15 -75 -6 -27 -12
-60 -15 -73 -3 -12 -7 -32 -10 -45 -17 -78 -58 -286 -61 -306 -3 -27 35 -71
62 -71 49 0 341 124 482 204 217 124 455 328 619 531 262 324 449 765 489
1155 9 85 9 89 15 94 3 3 6 -9 7 -27 4 -58 23 -191 32 -227 5 -19 12 -53 16
-74 6 -43 56 -215 75 -262 7 -16 13 -33 14 -39 10 -42 111 -250 168 -344 153
-255 322 -446 566 -644 32 -25 189 -130 241 -161 129 -75 383 -185 467 -202
43 -9 84 30 77 73 -9 57 -24 131 -50 253 -32 154 -32 154 -44 215 -5 28 -17
82 -25 120 -9 39 -17 81 -19 95 -2 14 -20 106 -41 205 -20 99 -39 191 -41 205
-3 14 -7 33 -10 42 -3 10 -7 29 -10 43 -8 50 -44 226 -61 300 -4 17 -7 68 -8
115 0 75 4 93 31 150 39 82 102 145 179 181 50 23 331 87 633 145 30 6 67 13
95 19 393 83 611 122 667 119 84 -5 176 -48 239 -113 58 -60 84 -113 106 -217
35 -163 86 -410 91 -439 3 -16 11 -57 19 -90 7 -33 16 -76 19 -95 3 -19 8 -44
10 -55 15 -66 36 -169 41 -195 3 -17 12 -63 21 -103 8 -39 18 -83 20 -97 5
-27 65 -318 68 -335 2 -5 6 -27 10 -47 17 -82 71 -91 148 -26 69 59 202 197
248 257 11 14 34 44 51 66 51 65 193 287 194 305 1 3 17 37 37 75 108 212 185
483 215 755 9 84 9 366 0 450 -11 99 -17 144 -22 160 -3 8 -7 33 -10 55 -30
196 -149 506 -277 719 -308 510 -797 878 -1363 1025 l-70 18 -17 74 c-9 41
-19 85 -21 99 -3 14 -15 72 -27 130 -12 58 -23 112 -25 120 -2 8 -19 89 -38
180 -20 91 -38 176 -41 190 -6 31 -61 290 -120 565 -25 116 -47 224 -50 240
-3 17 -8 39 -10 50 -36 163 -69 319 -76 355 -5 25 -12 55 -15 68 -11 49 -15
68 -20 97 -3 17 -9 48 -15 70 -11 48 -57 260 -63 295 -3 14 -17 81 -32 150
-15 69 -29 134 -30 145 -2 11 -24 117 -50 235 -26 118 -49 224 -51 235 -7 38
-55 270 -59 285 -4 15 -61 283 -69 324 -3 12 -9 44 -15 71 -5 28 -21 102 -35
165 -14 63 -27 126 -30 140 -3 14 -23 110 -45 214 -23 104 -41 191 -41 193 0
2 -5 3 -12 3 -6 0 -20 7 -30 17 -10 9 -27 21 -37 27 -22 13 -280 189 -376 256
-35 25 -170 117 -300 205 -129 88 -292 198 -360 245 -422 289 -610 416 -629
427 -18 10 -30 5 -87 -35z m-244 -3708 c22 -3 43 -8 46 -10 9 -5 177 -17 259
-17 119 -1 250 11 370 33 25 5 48 6 51 2 5 -6 22 -85 64 -297 2 -11 11 -53 19
-92 9 -40 18 -87 21 -105 3 -18 12 -60 20 -93 7 -33 16 -76 19 -95 3 -19 8
-44 10 -55 12 -55 35 -164 39 -185 4 -22 104 -512 112 -550 2 -8 26 -127 54
-265 29 -137 66 -317 82 -400 69 -335 75 -370 65 -380 -6 -6 -29 -24 -51 -40
-79 -59 -257 -229 -335 -321 -150 -176 -309 -452 -393 -680 -43 -117 -86 -280
-103 -384 -3 -19 -7 -42 -9 -50 -5 -16 -18 -141 -18 -177 -1 -28 -11 -20 -13
10 -15 254 -115 620 -224 822 -9 17 -29 55 -45 85 -34 64 -145 238 -166 260
-8 9 -25 31 -39 50 -73 104 -297 324 -414 408 l-33 23 23 112 c12 62 47 236
78 387 31 151 59 291 62 310 3 19 8 38 10 41 2 3 6 21 9 40 5 34 27 140 70
349 14 63 27 126 29 140 5 27 74 362 82 395 2 11 6 30 8 42 19 97 138 681 141
691 3 9 14 12 32 8 16 -3 46 -9 68 -12z"/>
</g>
</svg>
